<svg xmlns="http://www.w3.org/2000/svg" xmlns:xlink="http://www.w3.org/1999/xlink" width="100" height="100" fill="none" viewBox="0 0 90 100"><defs><radialGradient id="c" cx="0" cy="0" r="1" gradientTransform="rotate(52.117 -4.742 37.363) scale(101.192 140.632)" gradientUnits="userSpaceOnUse"><stop offset=".24" stop-color="#fff"/><stop offset=".629" stop-color="#739EFE"/><stop offset="1" stop-color="#94B4FC" stop-opacity="0"/></radialGradient><radialGradient id="d" cx="0" cy="0" r="1" gradientTransform="rotate(-142.415 52.382 26.997) scale(55.3379 46.8338)" gradientUnits="userSpaceOnUse"><stop stop-color="#0424CF"/><stop offset=".422" stop-color="#0B2ACC" stop-opacity=".42"/><stop offset="1" stop-color="#BFD0E3" stop-opacity=".26"/></radialGradient><path id="b" d="M41.364 96.46 6.073 76.173a6.964 6.964 0 0 1-3.512-6.047l.082-40.428a6.964 6.964 0 0 1 3.537-6.032l35.373-20.14a7.142 7.142 0 0 1 7.083.014l35.291 20.287a6.964 6.964 0 0 1 3.512 6.047l-.082 40.428a6.963 6.963 0 0 1-3.537 6.032l-35.373 20.14a7.142 7.142 0 0 1-7.083-.014Z"/></defs><g mask="url(#a)"><mask id="a" maskUnits="userSpaceOnUse" style="mask-type:alpha"><use xlink:href="#b" fill="#fff"/></mask><use xlink:href="#b" fill="#fff"/><path fill="#ff1553" fill-opacity=".5" d="m-7.998 36.966 58.388 38.01L115.593-35.21 56.244-54.655l-64.242 91.62Z"/><path fill="#ff1553" d="m-35.572 132.296 169.14-101.614L83.643-17.37z"/><path fill="#F36F52" d="m-11.465 83.253 29.843 31.404 100.114-56.365-2.547-10.59-127.41 35.551Z"/><g style="mix-blend-mode:overlay"><path fill="url(#c)" fill-opacity=".6" d="M0 0h90v100H0z"/><path fill="url(#d)" d="M0 0h90v100H0z"/></g></g><use xlink:href="#b" stroke="#0036B1" stroke-width="5"/></svg>